<svg width="146" height="152" viewBox="0 0 146 152" fill="none" xmlns="http://www.w3.org/2000/svg">
<path d="M116.55 84.8011C117.916 84.8011 119.226 85.3437 120.192 86.3095C121.157 87.2753 121.7 88.5852 121.7 89.951V110.55C121.7 114.648 120.072 118.577 117.175 121.475C114.277 124.372 110.348 126 106.25 126H85.65V84.8011H116.55ZM103.675 23.003C106.716 23.0024 109.708 23.7712 112.372 25.2379C115.036 26.7046 117.286 28.8215 118.912 31.3914C120.537 33.9614 121.487 36.901 121.671 39.9364C121.855 42.9719 121.268 46.0046 119.964 48.7522H121.7C124.432 48.7522 127.052 49.8374 128.983 51.7689C130.915 53.7005 132 56.3203 132 59.0519V64.2018C132 66.9334 130.915 69.5532 128.983 71.4847C127.052 73.4163 124.432 74.5014 121.7 74.5014H85.65V48.7522H75.35V74.5014H39.3C36.5683 74.5014 33.9484 73.4163 32.0168 71.4847C30.0852 69.5532 29 66.9334 29 64.2018V59.0519C29 56.3203 30.0852 53.7005 32.0168 51.7689C33.9484 49.8374 36.5683 48.7522 39.3 48.7522H41.0356C39.8917 46.3378 39.2988 43.6992 39.3 41.0275C39.3 31.0729 47.37 23.003 57.2374 23.003C66.2757 22.8485 74.2943 28.6267 79.7996 38.1127L80.5 39.3641C85.82 29.5074 93.684 23.3275 102.599 23.0133L103.675 23.003ZM57.325 33.3027C55.2762 33.3027 53.3113 34.1166 51.8626 35.5652C50.4139 37.0139 49.6 38.9788 49.6 41.0275C49.6 43.0762 50.4139 45.041 51.8626 46.4897C53.3113 47.9384 55.2762 48.7522 57.325 48.7522H73.5114C69.6953 38.9419 63.4741 33.1997 57.325 33.3027ZM103.587 33.3027C97.5105 33.1997 91.3047 38.947 87.4886 48.7522H103.675C105.724 48.7406 107.684 47.9156 109.125 46.4588C110.565 45.0019 111.368 43.0324 111.356 40.9837C111.345 38.935 110.52 36.9747 109.063 35.5343C107.606 34.0938 105.636 33.2911 103.587 33.3027Z" fill="white"/>
<path d="M34.75 116.75H53.75V121.5H34.75V116.75ZM34.75 104.875H63.25V109.625H34.75V104.875ZM34.75 128.625H46.625V133.375H34.75V128.625Z" fill="white"/>
<path d="M70.375 85.875H63.25V83.5C63.25 82.2402 62.7496 81.032 61.8588 80.1412C60.968 79.2504 59.7598 78.75 58.5 78.75H39.5C38.2402 78.75 37.032 79.2504 36.1412 80.1412C35.2504 81.032 34.75 82.2402 34.75 83.5V85.875H27.625C26.3652 85.875 25.157 86.3754 24.2662 87.2662C23.3754 88.157 22.875 89.3652 22.875 90.625V140.5C22.875 141.76 23.3754 142.968 24.2662 143.859C25.157 144.75 26.3652 145.25 27.625 145.25H70.375C71.6348 145.25 72.843 144.75 73.7338 143.859C74.6246 142.968 75.125 141.76 75.125 140.5V90.625C75.125 89.3652 74.6246 88.157 73.7338 87.2662C72.843 86.3754 71.6348 85.875 70.375 85.875ZM39.5 83.5H58.5V93H39.5V83.5ZM70.375 140.5H27.625V90.625H34.75V97.75H63.25V90.625H70.375V140.5Z" fill="white"/>
</svg>
