<svg width="151" height="151" viewBox="0 0 151 151" fill="none" xmlns="http://www.w3.org/2000/svg">
<path d="M73.35 78.9255V120.874L62.2981 120.864L57.9 120.874C65.8307 116.266 65.918 83.3434 37.3 86.7909V84.1691C37.3 82.7784 37.8426 81.4447 38.8084 80.4613C39.7742 79.478 41.0841 78.9255 42.45 78.9255H73.35ZM114.55 78.9255C115.916 78.9255 117.226 79.478 118.192 80.4613C119.157 81.4447 119.7 82.7784 119.7 84.1691V105.143C119.7 109.315 118.072 113.316 115.175 116.266C112.277 119.216 108.348 120.874 104.25 120.874H83.65V78.9255H114.55ZM101.675 16.0031C104.716 16.0024 107.708 16.7852 110.372 18.2786C113.036 19.772 115.286 21.9274 116.912 24.5441C118.537 27.1608 119.487 30.1539 119.671 33.2446C119.855 36.3353 119.268 39.4232 117.964 42.2208H119.7C122.432 42.2208 125.052 43.3257 126.983 45.2924C128.915 47.259 130 49.9265 130 52.7078V57.9514C130 60.7327 128.915 63.4002 126.983 65.3669C125.052 67.3335 122.432 68.4384 119.7 68.4384H83.65V42.2208H73.35V68.4384H37.3C34.5683 68.4384 31.9484 67.3335 30.0168 65.3669C28.0852 63.4002 27 60.7327 27 57.9514V52.7078C27 49.9265 28.0852 47.259 30.0168 45.2924C31.9484 43.3257 34.5683 42.2208 37.3 42.2208H39.0355C37.8917 39.7624 37.2988 37.0758 37.3 34.3555C37.3 24.2198 45.37 16.0031 55.2374 16.0031C64.2757 15.8458 72.2943 21.7291 77.7996 31.3876L78.5 32.6618C83.82 22.6257 91.684 16.3334 100.599 16.0136L101.675 16.0031ZM55.325 26.4902C53.2762 26.4902 51.3113 27.3188 49.8626 28.7938C48.4139 30.2689 47.6 32.2695 47.6 34.3555C47.6 36.4414 48.4139 38.4421 49.8626 39.9171C51.3113 41.3921 53.2762 42.2208 55.325 42.2208H71.5114C67.6953 32.2319 61.4741 26.3853 55.325 26.4902ZM101.587 26.4902C95.5105 26.3853 89.3047 32.2371 85.4886 42.2208H101.675C103.724 42.2089 105.684 41.3689 107.125 39.8856C108.565 38.4022 109.368 36.3969 109.356 34.3109C109.345 32.2249 108.52 30.229 107.063 28.7623C105.606 27.2957 103.636 26.4783 101.587 26.4902Z" fill="white"/>
<path d="M39.8852 125.693C43.9029 125.693 47.6138 124.353 50.599 122.1L63.6333 135.243C63.8706 135.483 64.1524 135.673 64.4626 135.803C64.7727 135.933 65.1052 136 65.441 136C65.7768 136 66.1094 135.934 66.4197 135.804C66.7301 135.675 67.0121 135.485 67.2497 135.246C67.4874 135.007 67.6759 134.723 67.8047 134.41C67.9334 134.097 67.9998 133.762 68 133.423C68.0002 133.085 67.9343 132.749 67.806 132.436C67.6777 132.123 67.4896 131.839 67.2523 131.599L54.2179 118.456C56.6306 115.203 57.8836 111.223 57.774 107.162C57.6645 103.101 56.1988 99.1966 53.6142 96.0803C51.0297 92.9639 47.4776 90.8184 43.5332 89.9912C39.5887 89.164 35.4829 89.7035 31.8804 91.5224C28.2779 93.3413 25.3898 96.333 23.6836 100.013C21.9774 103.693 21.553 107.846 22.4792 111.8C23.4054 115.754 25.6279 119.276 28.7869 121.798C31.9459 124.319 35.8564 125.691 39.8852 125.693ZM39.8852 120.538C36.4961 120.538 33.2457 119.181 30.8492 116.764C28.4527 114.348 27.1064 111.07 27.1064 107.653C27.1064 104.236 28.4527 100.958 30.8492 98.5416C33.2457 96.1251 36.4961 94.7675 39.8852 94.7675C43.2744 94.7675 46.5247 96.1251 48.9212 98.5416C51.3177 100.958 52.664 104.236 52.664 107.653C52.664 111.07 51.3177 114.348 48.9212 116.764C46.5247 119.181 43.2744 120.538 39.8852 120.538Z" fill="white"/>
</svg>
