<svg width="25" height="25" viewBox="0 0 25 25" fill="none" xmlns="http://www.w3.org/2000/svg">
<path d="M17.736 12.335C17.736 12.1405 17.6587 11.9539 17.5212 11.8163C17.3836 11.6788 17.197 11.6015 17.0025 11.6015H11.4352L13.1223 9.92178C13.1907 9.85339 13.2449 9.7722 13.2819 9.68285C13.319 9.59349 13.338 9.49772 13.338 9.401C13.338 9.30428 13.319 9.20851 13.2819 9.11915C13.2449 9.0298 13.1907 8.94861 13.1223 8.88021C13.0539 8.81182 12.9727 8.75757 12.8833 8.72056C12.794 8.68355 12.6982 8.6645 12.6015 8.6645C12.5048 8.6645 12.409 8.68355 12.3197 8.72056C12.2303 8.75757 12.1491 8.81182 12.0807 8.88021L9.14671 11.8142C9.07994 11.884 9.02759 11.9662 8.99268 12.0563C8.91932 12.2348 8.91932 12.4352 8.99268 12.6137C9.02759 12.7038 9.07994 12.786 9.14671 12.8558L12.0807 15.7898C12.1489 15.8585 12.23 15.9131 12.3194 15.9503C12.4088 15.9876 12.5047 16.0068 12.6015 16.0068C12.6983 16.0068 12.7942 15.9876 12.8836 15.9503C12.973 15.9131 13.0541 15.8585 13.1223 15.7898C13.191 15.7216 13.2456 15.6405 13.2828 15.5511C13.3201 15.4617 13.3393 15.3658 13.3393 15.269C13.3393 15.1722 13.3201 15.0763 13.2828 14.9869C13.2456 14.8975 13.191 14.8164 13.1223 14.7482L11.4352 13.0685H17.0025C17.197 13.0685 17.3836 12.9912 17.5212 12.8537C17.6587 12.7161 17.736 12.5295 17.736 12.335ZM15.5355 5H8.2005C7.61689 5 7.05719 5.23184 6.64451 5.64451C6.23184 6.05719 6 6.61689 6 7.2005V17.4695C6 18.0531 6.23184 18.6128 6.64451 19.0255C7.05719 19.4382 7.61689 19.67 8.2005 19.67H15.5355C16.1191 19.67 16.6788 19.4382 17.0915 19.0255C17.5042 18.6128 17.736 18.0531 17.736 17.4695V15.269C17.736 15.0745 17.6587 14.8879 17.5212 14.7503C17.3836 14.6128 17.197 14.5355 17.0025 14.5355C16.808 14.5355 16.6214 14.6128 16.4838 14.7503C16.3463 14.8879 16.269 15.0745 16.269 15.269V17.4695C16.269 17.664 16.1917 17.8506 16.0542 17.9882C15.9166 18.1257 15.73 18.203 15.5355 18.203H8.2005C8.00596 18.203 7.8194 18.1257 7.68184 17.9882C7.54428 17.8506 7.467 17.664 7.467 17.4695V7.2005C7.467 7.00596 7.54428 6.8194 7.68184 6.68184C7.8194 6.54428 8.00596 6.467 8.2005 6.467H15.5355C15.73 6.467 15.9166 6.54428 16.0542 6.68184C16.1917 6.8194 16.269 7.00596 16.269 7.2005V9.401C16.269 9.59554 16.3463 9.7821 16.4838 9.91966C16.6214 10.0572 16.808 10.1345 17.0025 10.1345C17.197 10.1345 17.3836 10.0572 17.5212 9.91966C17.6587 9.7821 17.736 9.59554 17.736 9.401V7.2005C17.736 6.61689 17.5042 6.05719 17.0915 5.64451C16.6788 5.23184 16.1191 5 15.5355 5Z" fill="white"/>
</svg>
