<svg width="140" height="140" viewBox="0 0 140 140" fill="none" xmlns="http://www.w3.org/2000/svg">
<path d="M122.197 18.1049C121.326 17.8979 120.409 18.0097 119.613 18.4199L113.955 21.2432L108.248 18.3923C107.737 18.137 107.173 18.004 106.601 18.004C106.03 18.004 105.466 18.137 104.955 18.3923L99.1767 21.2455L93.4745 18.3923C92.9618 18.1351 92.3961 18.0011 91.8223 18.0011C91.2486 18.0011 90.6828 18.1351 90.1701 18.3923L84.5001 21.2363L78.8739 18.3992C78.3626 18.1402 77.7978 18.0041 77.2245 18.0017C76.6512 17.9993 76.0853 18.1307 75.5718 18.3854L69.7729 21.2478L64.0661 18.39C63.5541 18.1348 62.9896 18.0019 62.4174 18.0019C61.8451 18.0019 61.2807 18.1348 60.7686 18.39L55.0457 21.2432L49.3297 18.39C48.5928 18.021 47.7533 17.9097 46.9456 18.0739C46.1378 18.2381 45.4086 18.6684 44.8747 19.2959C44.2993 19.9811 43.989 20.8499 44.0003 21.7444V76.8578L44.0118 76.8693H88.182C90.1349 76.8693 92.0079 77.6444 93.3888 79.0241C94.7698 80.4038 95.5456 82.2751 95.5456 84.2263V108.125C95.5456 115.236 103.155 121 110.273 121H113.034C116.208 121 119.251 119.74 121.495 117.498C123.739 115.256 125 112.216 125 109.045V21.68C125.001 20.8567 124.725 20.0569 124.217 19.4088C123.709 18.7606 122.997 18.3015 122.197 18.1049ZM106.591 65.8222H77.2516C75.2634 65.8222 73.5468 64.2956 73.4593 62.3092C73.437 61.8128 73.5155 61.317 73.6902 60.8517C73.8649 60.3864 74.1321 59.9614 74.4757 59.6021C74.8194 59.2429 75.2323 58.9569 75.6897 58.7615C76.147 58.5661 76.6392 58.4653 77.1365 58.4652H106.476C108.464 58.4652 110.181 59.9918 110.268 61.9782C110.291 62.4746 110.212 62.9704 110.037 63.4357C109.863 63.901 109.595 64.3261 109.252 64.6853C108.908 65.0445 108.495 65.3305 108.038 65.5259C107.581 65.7213 107.088 65.8221 106.591 65.8222ZM106.591 47.4296H62.5244C60.5362 47.4296 58.8196 45.903 58.7321 43.9166C58.7097 43.4202 58.7883 42.9244 58.963 42.4591C59.1376 41.9939 59.4049 41.5688 59.7485 41.2095C60.0922 40.8503 60.5051 40.5643 60.9624 40.3689C61.4197 40.1735 61.9119 40.0727 62.4093 40.0726H106.476C108.464 40.0726 110.181 41.5992 110.268 43.5856C110.291 44.082 110.212 44.5778 110.037 45.0431C109.863 45.5084 109.595 45.9335 109.252 46.2927C108.908 46.652 108.495 46.9379 108.038 47.1333C107.581 47.3287 107.088 47.4295 106.591 47.4296Z" fill="white"/>
<path d="M88.0562 108.05V87.7C88.0562 86.7187 87.6661 85.7776 86.9717 85.0837C86.2773 84.3898 85.3355 84 84.3534 84H21.4056C19.4414 84.0061 17.5596 84.7893 16.1717 86.1782C14.7839 87.5672 14.0031 89.4488 14 91.4116C14 103.101 15.3376 107.962 17.3464 111.662C20.7553 117.945 26.9274 121 36.2169 121H93.0735C93.2562 121 93.4348 120.946 93.5869 120.845C93.739 120.744 93.8577 120.6 93.9282 120.432C93.9987 120.264 94.0178 120.078 93.9831 119.899C93.9484 119.72 93.8614 119.555 93.7331 119.425C91.5438 117.231 88.0562 114.294 88.0562 108.05Z" fill="white"/>
</svg>
