<svg width="147" height="152" viewBox="0 0 147 152" fill="none" xmlns="http://www.w3.org/2000/svg">
<path d="M76.0001 15.6001C67.9905 15.6001 60.309 18.7819 54.6454 24.4455C48.9818 30.1091 45.8001 37.7906 45.8001 45.8001C45.8001 53.8096 48.9818 61.4911 54.6454 67.1547C60.309 72.8183 67.9905 76.0001 76.0001 76.0001C84.0096 76.0001 91.6911 72.8183 97.3547 67.1547C103.018 61.4911 106.2 53.8096 106.2 45.8001C106.2 37.7906 103.018 30.1091 97.3547 24.4455C91.6911 18.7819 84.0096 15.6001 76.0001 15.6001ZM112.731 127.317C104.645 132.474 94.2031 135.351 82.8177 136.158C82.2494 134.659 81.3693 133.298 80.2356 132.165L65.1356 117.072C67.3191 112.498 68.4516 107.494 68.4501 102.425C68.4508 95.7059 66.4593 89.1374 62.7272 83.5501H113.75C117.755 83.5501 121.596 85.141 124.427 87.9728C127.259 90.8046 128.85 94.6453 128.85 98.6501C128.85 111.417 122.561 121.043 112.731 127.317ZM34.4751 128.85C40.4094 128.85 45.8907 126.887 50.2999 123.588L69.5524 142.84C69.9029 143.191 70.319 143.47 70.7772 143.66C71.2353 143.85 71.7264 143.948 72.2224 143.948C72.7184 143.949 73.2096 143.851 73.668 143.662C74.1264 143.472 74.543 143.194 74.894 142.844C75.245 142.494 75.5235 142.077 75.7136 141.619C75.9038 141.161 76.0018 140.67 76.0022 140.174C76.0025 139.678 75.9052 139.187 75.7157 138.728C75.5262 138.27 75.2483 137.853 74.8978 137.502L55.6453 118.25C59.2089 113.484 61.0597 107.655 60.8979 101.706C60.736 95.7578 58.5711 90.038 54.7536 85.4731C50.936 80.9081 45.6894 77.7654 39.8633 76.5537C34.0372 75.342 27.9726 76.1323 22.6515 78.7966C17.3305 81.4609 13.0645 85.8433 10.5443 91.2341C8.02417 96.6249 7.39736 102.709 8.7654 108.5C10.1334 114.291 13.4162 119.451 18.0822 123.145C22.7482 126.838 28.5243 128.848 34.4751 128.85ZM34.4751 121.3C29.4691 121.3 24.6682 119.311 21.1284 115.772C17.5887 112.232 15.6001 107.431 15.6001 102.425C15.6001 97.4191 17.5887 92.6182 21.1284 89.0784C24.6682 85.5387 29.4691 83.5501 34.4751 83.5501C39.481 83.5501 44.282 85.5387 47.8217 89.0784C51.3615 92.6182 53.3501 97.4191 53.3501 102.425C53.3501 107.431 51.3615 112.232 47.8217 115.772C44.282 119.311 39.481 121.3 34.4751 121.3Z" fill="white"/>
</svg>
