<svg width="151" height="152" viewBox="0 0 151 152" fill="none" xmlns="http://www.w3.org/2000/svg">
<path d="M78.9424 9C70.9329 9 63.2514 12.1818 57.5878 17.8454C51.9242 23.509 48.7424 31.1905 48.7424 39.2C48.7424 47.2095 51.9242 54.891 57.5878 60.5546C63.2514 66.2182 70.9329 69.4 78.9424 69.4C86.952 69.4 94.6335 66.2182 100.297 60.5546C105.961 54.891 109.142 47.2095 109.142 39.2C109.142 31.1905 105.961 23.509 100.297 17.8454C94.6335 12.1818 86.952 9 78.9424 9ZM115.673 120.717C107.587 125.874 97.1455 128.751 85.7601 129.558C85.7601 129.558 74.6337 130.692 73.5 129.558V120.717C74.5 92.05 75 84 65.6695 84V76.95H116.692C120.697 76.95 124.538 78.5409 127.37 81.3727C130.202 84.2045 131.792 88.0452 131.792 92.05C131.792 104.817 125.503 114.443 115.673 120.717Z" fill="white"/>
<path d="M28.75 116.75H47.75V121.5H28.75V116.75ZM28.75 104.875H57.25V109.625H28.75V104.875ZM28.75 128.625H40.625V133.375H28.75V128.625Z" fill="white"/>
<path d="M64.375 85.875H57.25V83.5C57.25 82.2402 56.7496 81.032 55.8588 80.1412C54.968 79.2504 53.7598 78.75 52.5 78.75H33.5C32.2402 78.75 31.032 79.2504 30.1412 80.1412C29.2504 81.032 28.75 82.2402 28.75 83.5V85.875H21.625C20.3652 85.875 19.157 86.3754 18.2662 87.2662C17.3754 88.157 16.875 89.3652 16.875 90.625V140.5C16.875 141.76 17.3754 142.968 18.2662 143.859C19.157 144.75 20.3652 145.25 21.625 145.25H64.375C65.6348 145.25 66.843 144.75 67.7338 143.859C68.6246 142.968 69.125 141.76 69.125 140.5V90.625C69.125 89.3652 68.6246 88.157 67.7338 87.2662C66.843 86.3754 65.6348 85.875 64.375 85.875ZM33.5 83.5H52.5V93H33.5V83.5ZM64.375 140.5H21.625V90.625H28.75V97.75H57.25V90.625H64.375V140.5Z" fill="white"/>
</svg>
