<svg width="152" height="151" viewBox="0 0 152 151" fill="none" xmlns="http://www.w3.org/2000/svg">
<path d="M81.6741 138.699C74.3529 131.16 70.2626 121.062 70.2736 110.553C70.2736 101.45 73.2828 93.0429 78.3629 86.2856H27.1307C22.8399 86.2856 18.7248 87.9902 15.6907 91.0242C12.6567 94.0583 10.9521 98.1734 10.9521 102.464V106.32C10.9521 126.371 33.6561 140.214 64.8807 140.214C70.5132 140.226 76.1347 139.719 81.6741 138.699ZM97.2379 43.1428C97.2379 34.5611 93.8288 26.331 87.7607 20.2628C81.6925 14.1947 73.4624 10.7856 64.8807 10.7856C56.2991 10.7856 48.0689 14.1947 42.0008 20.2628C35.9326 26.331 32.5236 34.5611 32.5236 43.1428C32.5236 51.7244 35.9326 59.9546 42.0008 66.0227C48.0689 72.0909 56.2991 75.4999 64.8807 75.4999C73.4624 75.4999 81.6925 72.0909 87.7607 66.0227C93.8288 59.9546 97.2379 51.7244 97.2379 43.1428ZM110.72 145.607C120.017 145.607 128.933 141.914 135.507 135.34C142.08 128.766 145.774 119.85 145.774 110.553C145.774 101.257 142.08 92.3407 135.507 85.7669C128.933 79.1931 120.017 75.4999 110.72 75.4999C101.423 75.4999 92.5072 79.1931 85.9334 85.7669C79.3596 92.3407 75.6664 101.257 75.6664 110.553C75.6664 119.85 79.3596 128.766 85.9334 135.34C92.5072 141.914 101.423 145.607 110.72 145.607ZM110.72 86.2856C111.435 86.2856 112.121 86.5697 112.627 87.0754C113.132 87.5811 113.416 88.2669 113.416 88.9821V107.857H132.291C133.007 107.857 133.692 108.141 134.198 108.647C134.704 109.153 134.988 109.838 134.988 110.553C134.988 111.269 134.704 111.954 134.198 112.46C133.692 112.966 133.007 113.25 132.291 113.25H113.416V132.125C113.416 132.84 113.132 133.526 112.627 134.032C112.121 134.537 111.435 134.821 110.72 134.821C110.005 134.821 109.319 134.537 108.813 134.032C108.308 133.526 108.024 132.84 108.024 132.125V113.25H89.1486C88.4334 113.25 87.7476 112.966 87.2419 112.46C86.7362 111.954 86.4521 111.269 86.4521 110.553C86.4521 109.838 86.7362 109.153 87.2419 108.647C87.7476 108.141 88.4334 107.857 89.1486 107.857H108.024V88.9821C108.024 88.2669 108.308 87.5811 108.813 87.0754C109.319 86.5697 110.005 86.2856 110.72 86.2856Z" fill="white"/>
</svg>
