<svg width="25" height="25" viewBox="0 0 25 25" fill="none" xmlns="http://www.w3.org/2000/svg">
<path fill-rule="evenodd" clip-rule="evenodd" d="M9.02778 8.22222C9.02778 7.36764 9.36726 6.54805 9.97154 5.94377C10.5758 5.33948 11.3954 5 12.25 5C13.1046 5 13.9242 5.33948 14.5285 5.94377C15.1327 6.54805 15.4722 7.36764 15.4722 8.22222C15.4722 9.07681 15.1327 9.89639 14.5285 10.5007C13.9242 11.105 13.1046 11.4444 12.25 11.4444C11.3954 11.4444 10.5758 11.105 9.97154 10.5007C9.36726 9.89639 9.02778 9.07681 9.02778 8.22222ZM9.02778 13.0556C7.95954 13.0556 6.93506 13.4799 6.17971 14.2353C5.42435 14.9906 5 16.0151 5 17.0833C5 17.7243 5.25461 18.339 5.70783 18.7922C6.16104 19.2454 6.77573 19.5 7.41667 19.5H17.0833C17.7243 19.5 18.339 19.2454 18.7922 18.7922C19.2454 18.339 19.5 17.7243 19.5 17.0833C19.5 16.0151 19.0756 14.9906 18.3203 14.2353C17.5649 13.4799 16.5405 13.0556 15.4722 13.0556H9.02778Z" fill="white"/>
</svg>
