<svg width="25" height="25" viewBox="0 0 25 25" fill="none" xmlns="http://www.w3.org/2000/svg">
<path d="M12.5 4C14.7543 4 16.9163 4.89553 18.5104 6.48959C20.1045 8.08365 21 10.2457 21 12.5C21 14.7543 20.1045 16.9163 18.5104 18.5104C16.9163 20.1045 14.7543 21 12.5 21C10.2457 21 8.08365 20.1045 6.48959 18.5104C4.89553 16.9163 4 14.7543 4 12.5C4 10.2457 4.89553 8.08365 6.48959 6.48959C8.08365 4.89553 10.2457 4 12.5 4ZM13.7749 9.21863C14.4063 9.21863 14.9187 8.7803 14.9187 8.1307C14.9187 7.48111 14.4051 7.04278 13.7749 7.04278C13.1435 7.04278 12.6336 7.48111 12.6336 8.1307C12.6336 8.7803 13.1435 9.21863 13.7749 9.21863ZM13.9971 16.0509C13.9971 15.921 14.042 15.5835 14.0165 15.3916L13.0185 16.5402C12.812 16.7576 12.5534 16.9081 12.432 16.8681C12.3769 16.8478 12.3309 16.8085 12.3022 16.7573C12.2734 16.7062 12.2639 16.6464 12.2754 16.5888L13.9388 11.3338C14.0748 10.6672 13.7008 10.0589 12.908 9.98114C12.0714 9.98114 10.8402 10.8299 10.091 11.9069C10.091 12.0356 10.0667 12.3561 10.0922 12.548L11.0891 11.3981C11.2955 11.1832 11.5359 11.0314 11.6573 11.0727C11.7172 11.0942 11.7662 11.1382 11.7939 11.1955C11.8216 11.2527 11.8257 11.3184 11.8055 11.3787L10.1566 16.6082C9.96597 17.2202 10.3266 17.82 11.2008 17.956C12.4879 17.956 13.2467 17.1279 13.9971 16.0509Z" fill="white"/>
</svg>
